<svg width="161" height="34" viewBox="0 0 161 34" fill="none" xmlns="http://www.w3.org/2000/svg">
<g clip-path="url(#clip0_502_616)">
<path d="M0.5 4.86525V11.6182C0.5 13.6749 3.00611 14.7719 4.53763 13.3322L11.8471 6.5792C13.4483 5.1052 12.404 2.5 10.2112 2.5H2.90169C1.57902 2.5 0.5 3.56265 0.5 4.86525Z" fill="white"/>
<path d="M35.0982 2.5H27.7887C25.6307 2.5 24.5517 5.1052 26.1528 6.5792L33.4623 13.3322C34.9938 14.7376 37.4999 13.6749 37.4999 11.6182V4.86525C37.4999 3.56265 36.4209 2.5 35.0982 2.5Z" fill="white"/>
<path d="M20.6533 18.9884L33.4624 30.8489C34.9939 32.2543 37.5 31.1917 37.5 29.1349V22.3134C37.5 21.6621 37.2215 21.0451 36.7342 20.5995L20.6533 5.68814C19.7135 4.83117 18.2865 4.83117 17.3467 5.68814L1.26576 20.5995C0.778457 21.0451 0.5 21.6621 0.5 22.3134V29.1349C0.5 31.1917 3.00611 32.2886 4.53763 30.8489L17.3467 18.9884C18.2865 18.1314 19.7135 18.1314 20.6533 18.9884Z" fill="white"/>
</g>
<path d="M62.7727 13.2188C62.6335 12.7348 62.438 12.3073 62.1861 11.9361C61.9342 11.5582 61.6259 11.2401 61.2614 10.9815C60.9034 10.7164 60.4924 10.5142 60.0284 10.375C59.571 10.2358 59.0639 10.1662 58.5071 10.1662C57.4664 10.1662 56.5516 10.4247 55.7628 10.9418C54.9806 11.4588 54.3707 12.2112 53.9332 13.1989C53.4957 14.1799 53.277 15.3797 53.277 16.7983C53.277 18.2169 53.4924 19.4233 53.9233 20.4176C54.3542 21.4119 54.964 22.1709 55.7528 22.6946C56.5417 23.2116 57.473 23.4702 58.5469 23.4702C59.5213 23.4702 60.3532 23.2978 61.0426 22.9531C61.7386 22.6018 62.2689 22.108 62.6335 21.4716C63.0047 20.8352 63.1903 20.0829 63.1903 19.2145L64.0653 19.3438H58.8153V16.1023H67.3366V18.6676C67.3366 20.4574 66.9588 21.9953 66.2031 23.2812C65.4474 24.5606 64.4067 25.5483 63.081 26.2443C61.7552 26.9337 60.2372 27.2784 58.527 27.2784C56.6179 27.2784 54.9408 26.8575 53.4957 26.0156C52.0507 25.1671 50.9238 23.964 50.1151 22.4062C49.313 20.8419 48.9119 18.9858 48.9119 16.8381C48.9119 15.1875 49.1506 13.7159 49.6278 12.4233C50.1117 11.1241 50.7879 10.0237 51.6562 9.12216C52.5246 8.22064 53.5355 7.53456 54.6889 7.06392C55.8423 6.59328 57.0919 6.35795 58.4375 6.35795C59.5909 6.35795 60.6648 6.52699 61.6591 6.86506C62.6534 7.1965 63.535 7.66714 64.304 8.27699C65.0795 8.88684 65.7126 9.61269 66.2031 10.4545C66.6937 11.2898 67.0085 12.2112 67.1477 13.2188H62.7727ZM74.8462 27.2884C73.8718 27.2884 73.0034 27.1193 72.2411 26.7812C71.4788 26.4366 70.8756 25.9295 70.4315 25.2599C69.994 24.5838 69.7752 23.742 69.7752 22.7344C69.7752 21.8859 69.931 21.1733 70.2425 20.5966C70.5541 20.0199 70.9783 19.5559 71.5153 19.2045C72.0522 18.8532 72.6621 18.5881 73.3448 18.4091C74.0342 18.2301 74.7567 18.1042 75.5124 18.0312C76.4007 17.9384 77.1166 17.8523 77.6602 17.7727C78.2037 17.6866 78.5981 17.5606 78.8434 17.3949C79.0887 17.2292 79.2113 16.9839 79.2113 16.6591V16.5994C79.2113 15.9697 79.0124 15.4825 78.6147 15.1378C78.2236 14.7931 77.6668 14.6207 76.9442 14.6207C76.1819 14.6207 75.5754 14.7898 75.1246 15.1278C74.6739 15.4593 74.3756 15.8769 74.2298 16.3807L70.3121 16.0625C70.511 15.1345 70.9021 14.3324 71.4854 13.6562C72.0688 12.9735 72.8211 12.4498 73.7425 12.0852C74.6706 11.714 75.7444 11.5284 76.9641 11.5284C77.8126 11.5284 78.6246 11.6278 79.4002 11.8267C80.1824 12.0256 80.8751 12.3338 81.4783 12.7514C82.0882 13.169 82.5688 13.706 82.9201 14.3622C83.2714 15.0118 83.4471 15.7907 83.4471 16.6989V27H79.43V24.8821H79.3107C79.0655 25.3594 78.7373 25.7803 78.3263 26.1449C77.9154 26.5028 77.4215 26.7846 76.8448 26.9901C76.2681 27.1889 75.6019 27.2884 74.8462 27.2884ZM76.0593 24.3651C76.6824 24.3651 77.2326 24.2424 77.7099 23.9972C78.1871 23.7453 78.5617 23.4072 78.8335 22.983C79.1052 22.5587 79.2411 22.0781 79.2411 21.5412V19.9205C79.1085 20.0066 78.9263 20.0862 78.6942 20.1591C78.4689 20.2254 78.2137 20.2884 77.9286 20.348C77.6436 20.401 77.3585 20.4508 77.0735 20.4972C76.7885 20.5369 76.5299 20.5734 76.2979 20.6065C75.8008 20.6795 75.3666 20.7955 74.9954 20.9545C74.6242 21.1136 74.3358 21.3291 74.1303 21.6009C73.9248 21.866 73.8221 22.1974 73.8221 22.5952C73.8221 23.1719 74.0309 23.6127 74.4485 23.9176C74.8728 24.2159 75.4097 24.3651 76.0593 24.3651ZM90.9691 6.63636V27H86.7333V6.63636H90.9691ZM98.7173 27.2884C97.7429 27.2884 96.8745 27.1193 96.1122 26.7812C95.3499 26.4366 94.7467 25.9295 94.3026 25.2599C93.8651 24.5838 93.6463 23.742 93.6463 22.7344C93.6463 21.8859 93.8021 21.1733 94.1136 20.5966C94.4252 20.0199 94.8494 19.5559 95.3864 19.2045C95.9233 18.8532 96.5331 18.5881 97.2159 18.4091C97.9053 18.2301 98.6278 18.1042 99.3835 18.0312C100.272 17.9384 100.988 17.8523 101.531 17.7727C102.075 17.6866 102.469 17.5606 102.714 17.3949C102.96 17.2292 103.082 16.9839 103.082 16.6591V16.5994C103.082 15.9697 102.884 15.4825 102.486 15.1378C102.095 14.7931 101.538 14.6207 100.815 14.6207C100.053 14.6207 99.4465 14.7898 98.9957 15.1278C98.545 15.4593 98.2467 15.8769 98.1009 16.3807L94.1832 16.0625C94.3821 15.1345 94.7732 14.3324 95.3565 13.6562C95.9399 12.9735 96.6922 12.4498 97.6136 12.0852C98.5417 11.714 99.6155 11.5284 100.835 11.5284C101.684 11.5284 102.496 11.6278 103.271 11.8267C104.054 12.0256 104.746 12.3338 105.349 12.7514C105.959 13.169 106.44 13.706 106.791 14.3622C107.143 15.0118 107.318 15.7907 107.318 16.6989V27H103.301V24.8821H103.182C102.937 25.3594 102.608 25.7803 102.197 26.1449C101.786 26.5028 101.293 26.7846 100.716 26.9901C100.139 27.1889 99.473 27.2884 98.7173 27.2884ZM99.9304 24.3651C100.554 24.3651 101.104 24.2424 101.581 23.9972C102.058 23.7453 102.433 23.4072 102.705 22.983C102.976 22.5587 103.112 22.0781 103.112 21.5412V19.9205C102.98 20.0066 102.797 20.0862 102.565 20.1591C102.34 20.2254 102.085 20.2884 101.8 20.348C101.515 20.401 101.23 20.4508 100.945 20.4972C100.66 20.5369 100.401 20.5734 100.169 20.6065C99.6719 20.6795 99.2377 20.7955 98.8665 20.9545C98.4953 21.1136 98.2069 21.3291 98.0014 21.6009C97.7959 21.866 97.6932 22.1974 97.6932 22.5952C97.6932 23.1719 97.902 23.6127 98.3196 23.9176C98.7438 24.2159 99.2808 24.3651 99.9304 24.3651ZM117.505 27.2983C115.941 27.2983 114.595 26.9669 113.468 26.304C112.348 25.6345 111.486 24.7064 110.883 23.5199C110.286 22.3333 109.988 20.9678 109.988 19.4233C109.988 17.8589 110.29 16.4867 110.893 15.3068C111.503 14.1203 112.368 13.1955 113.488 12.5327C114.608 11.8632 115.941 11.5284 117.485 11.5284C118.817 11.5284 119.984 11.7704 120.985 12.2543C121.986 12.7382 122.778 13.4176 123.362 14.2926C123.945 15.1676 124.266 16.1951 124.326 17.375H120.329C120.216 16.6127 119.918 15.9995 119.434 15.5355C118.957 15.0649 118.33 14.8295 117.555 14.8295C116.898 14.8295 116.325 15.0085 115.835 15.3665C115.351 15.7178 114.973 16.2315 114.701 16.9077C114.429 17.5838 114.293 18.4025 114.293 19.3636C114.293 20.3381 114.426 21.1667 114.691 21.8494C114.963 22.5322 115.344 23.0526 115.835 23.4105C116.325 23.7685 116.898 23.9474 117.555 23.9474C118.039 23.9474 118.473 23.848 118.857 23.6491C119.248 23.4503 119.57 23.1619 119.822 22.7841C120.08 22.3996 120.249 21.9389 120.329 21.402H124.326C124.26 22.5687 123.942 23.5961 123.371 24.4844C122.808 25.366 122.029 26.0554 121.035 26.5526C120.04 27.0497 118.864 27.2983 117.505 27.2983ZM135.162 11.7273V14.9091H125.964V11.7273H135.162ZM128.052 8.06818H132.288V22.3068C132.288 22.6979 132.348 23.0028 132.467 23.2216C132.586 23.4337 132.752 23.5829 132.964 23.669C133.183 23.7552 133.435 23.7983 133.72 23.7983C133.919 23.7983 134.118 23.7817 134.316 23.7486C134.515 23.7088 134.668 23.679 134.774 23.6591L135.44 26.8111C135.228 26.8774 134.93 26.9536 134.545 27.0398C134.161 27.1326 133.693 27.1889 133.143 27.2088C132.122 27.2486 131.227 27.1127 130.458 26.8011C129.696 26.4896 129.103 26.0057 128.679 25.3494C128.254 24.6932 128.046 23.8646 128.052 22.8636V8.06818ZM137.921 27V11.7273H142.157V27H137.921ZM140.049 9.75852C139.419 9.75852 138.879 9.54972 138.428 9.1321C137.984 8.70786 137.762 8.20076 137.762 7.61079C137.762 7.02746 137.984 6.52699 138.428 6.10938C138.879 5.68513 139.419 5.47301 140.049 5.47301C140.678 5.47301 141.215 5.68513 141.659 6.10938C142.11 6.52699 142.336 7.02746 142.336 7.61079C142.336 8.20076 142.11 8.70786 141.659 9.1321C141.215 9.54972 140.678 9.75852 140.049 9.75852ZM152.45 27.2983C150.886 27.2983 149.54 26.9669 148.413 26.304C147.293 25.6345 146.431 24.7064 145.828 23.5199C145.232 22.3333 144.933 20.9678 144.933 19.4233C144.933 17.8589 145.235 16.4867 145.838 15.3068C146.448 14.1203 147.313 13.1955 148.433 12.5327C149.554 11.8632 150.886 11.5284 152.43 11.5284C153.763 11.5284 154.929 11.7704 155.93 12.2543C156.931 12.7382 157.723 13.4176 158.307 14.2926C158.89 15.1676 159.212 16.1951 159.271 17.375H155.274C155.161 16.6127 154.863 15.9995 154.379 15.5355C153.902 15.0649 153.276 14.8295 152.5 14.8295C151.844 14.8295 151.27 15.0085 150.78 15.3665C150.296 15.7178 149.918 16.2315 149.646 16.9077C149.375 17.5838 149.239 18.4025 149.239 19.3636C149.239 20.3381 149.371 21.1667 149.636 21.8494C149.908 22.5322 150.289 23.0526 150.78 23.4105C151.27 23.7685 151.844 23.9474 152.5 23.9474C152.984 23.9474 153.418 23.848 153.803 23.6491C154.194 23.4503 154.515 23.1619 154.767 22.7841C155.026 22.3996 155.195 21.9389 155.274 21.402H159.271C159.205 22.5687 158.887 23.5961 158.317 24.4844C157.753 25.366 156.974 26.0554 155.98 26.5526C154.986 27.0497 153.809 27.2983 152.45 27.2983Z" fill="white"/>
<defs>
<clipPath id="clip0_502_616">
<rect width="37" height="29" fill="white" transform="translate(0.5 2.5)"/>
</clipPath>
</defs>
</svg>
